# Blender v2.80 (sub 75) OBJ File: 'radius.blend'
# www.blender.org
mtllib radius.mtl
o Circle_Cube.001
v -0.831469 -0.347069 -0.555571
v -0.831469 0.348849 -0.555571
v -0.707106 0.348857 -0.707108
v -0.707106 -0.347069 -0.707108
v -0.195089 -0.347069 0.980786
v -0.195089 0.348858 0.980786
v -0.382683 0.348855 0.923880
v -0.382683 -0.347069 0.923880
v 0.707108 -0.347069 0.707107
v 0.707108 0.348849 0.707107
v 0.555571 0.348858 0.831470
v 0.555571 -0.347069 0.831470
v -0.707106 -0.347069 0.707107
v -0.707106 0.348850 0.707107
v -0.831469 0.348847 0.555570
v -0.831469 -0.347069 0.555570
v -0.555570 0.348848 -0.831471
v -0.555570 -0.347069 -0.831471
v 0.000001 -0.347069 -1.000001
v 0.000001 0.348850 -1.000001
v 0.195089 0.348848 -0.980787
v 0.195089 -0.347069 -0.980787
v 0.382685 -0.347069 0.923880
v 0.382684 0.348857 0.923880
v 0.195091 0.348848 0.980786
v 0.195091 -0.347069 0.980786
v -0.923879 -0.347068 0.382683
v -0.923879 0.348859 0.382683
v -0.980785 0.348854 0.195090
v -0.980785 -0.347069 0.195090
v -0.382683 0.348849 -0.923881
v -0.382683 -0.347069 -0.923881
v 0.382683 -0.347069 -0.923881
v 0.382683 0.348850 -0.923881
v 0.555570 0.348856 -0.831472
v 0.555570 -0.347069 -0.831471
v 0.000001 -0.347069 1.000000
v 0.000001 0.348856 1.000001
v -0.999999 0.348855 0.000000
v -0.999999 -0.347069 -0.000000
v -0.195090 0.348859 -0.980787
v -0.195090 -0.347069 -0.980786
v 0.707107 -0.347069 -0.707109
v 0.707107 0.348855 -0.707109
v 0.831470 0.348858 -0.555572
v 0.831470 -0.347069 -0.555572
v -0.555570 0.348850 0.831470
v -0.555570 -0.347069 0.831470
v -0.980785 0.348856 -0.195091
v -0.980785 -0.347069 -0.195091
v 0.923880 0.348859 -0.382685
v 0.923880 -0.347068 -0.382685
v 0.980786 0.348851 -0.195092
v 0.980786 -0.347069 -0.195092
v 1.000001 0.348850 -0.000001
v 1.000001 -0.347069 -0.000001
v -0.923879 0.348854 -0.382684
v -0.923879 -0.347069 -0.382684
v 0.980786 -0.347069 0.195089
v 0.980786 0.348848 0.195089
v 0.923881 0.348852 0.382683
v 0.923881 -0.347069 0.382683
v 0.831471 -0.347069 0.555570
v 0.831471 0.348856 0.555570
v -0.693588 -0.344905 -0.463442
v -0.589848 -0.344905 -0.589850
v -0.589848 0.346693 -0.589850
v -0.693588 0.346685 -0.463442
v -0.162738 -0.344905 0.818145
v -0.319223 -0.344905 0.770675
v -0.319223 0.346691 0.770676
v -0.162738 0.346694 0.818145
v 0.589850 -0.344905 0.589849
v 0.463443 -0.344904 0.693589
v 0.463442 0.346694 0.693589
v 0.589850 0.346685 0.589849
v -0.589848 -0.344905 0.589849
v -0.693589 -0.344905 0.463441
v -0.693589 0.346683 0.463442
v -0.589848 0.346686 0.589849
v -0.463441 -0.344905 -0.693590
v -0.463441 0.346684 -0.693590
v 0.000001 -0.344905 -0.834174
v 0.162738 -0.344905 -0.818145
v 0.162738 0.346684 -0.818146
v 0.000001 0.346686 -0.834174
v 0.319225 -0.344905 0.770675
v 0.162740 -0.344905 0.818144
v 0.162740 0.346684 0.818145
v 0.319225 0.346693 0.770675
v -0.770674 -0.344904 0.319224
v -0.818144 -0.344905 0.162739
v -0.818144 0.346690 0.162739
v -0.770674 0.346694 0.319224
v -0.319223 -0.344905 -0.770676
v -0.319223 0.346685 -0.770676
v 0.319224 -0.344905 -0.770676
v 0.463441 -0.344905 -0.693591
v 0.463441 0.346692 -0.693591
v 0.319223 0.346686 -0.770677
v 0.000001 -0.344905 0.834173
v 0.000001 0.346692 0.834173
v -0.834172 -0.344905 -0.000000
v -0.834172 0.346691 0.000000
v -0.162738 -0.344904 -0.818145
v -0.162738 0.346694 -0.818145
v 0.589849 -0.344905 -0.589851
v 0.693589 -0.344905 -0.463443
v 0.693589 0.346694 -0.463443
v 0.589849 0.346691 -0.589851
v -0.463441 -0.344905 0.693589
v -0.463441 0.346685 0.693590
v -0.818143 -0.344905 -0.162739
v -0.818143 0.346692 -0.162739
v 0.770675 -0.344904 -0.319226
v 0.770675 0.346695 -0.319226
v 0.818145 -0.344905 -0.162740
v 0.818144 0.346687 -0.162740
v 0.834173 -0.344905 -0.000001
v 0.834173 0.346686 -0.000001
v -0.770674 -0.344905 -0.319225
v -0.770674 0.346690 -0.319225
v 0.818145 -0.344905 0.162738
v 0.770676 -0.344905 0.319223
v 0.770676 0.346688 0.319223
v 0.818145 0.346684 0.162738
v 0.693590 -0.344905 0.463441
v 0.693590 0.346692 0.463441
v -0.000001 -0.290086 -0.562700
v -0.000001 0.290086 -0.562700
v 0.109777 -0.290086 -0.551888
v 0.109777 0.290086 -0.551888
v 0.215335 -0.290086 -0.519867
v 0.215335 0.290086 -0.519867
v 0.312619 -0.290086 -0.467868
v 0.312619 0.290086 -0.467868
v 0.397888 -0.290086 -0.397889
v 0.397888 0.290086 -0.397889
v 0.467867 -0.290086 -0.312620
v 0.467867 0.290086 -0.312620
v 0.519866 -0.290086 -0.215337
v 0.519866 0.290086 -0.215337
v 0.551887 -0.290086 -0.109778
v 0.551887 0.290086 -0.109778
v 0.562699 -0.290086 -0.000001
v 0.562699 0.290086 -0.000001
v 0.551887 -0.290086 0.109776
v 0.551887 0.290086 0.109776
v 0.519866 -0.290086 0.215335
v 0.519866 0.290086 0.215335
v 0.467867 -0.290086 0.312618
v 0.467867 0.290086 0.312618
v 0.397888 -0.290086 0.397888
v 0.397888 0.290086 0.397888
v 0.312619 -0.290086 0.467867
v 0.312619 0.290086 0.467867
v 0.215335 -0.290086 0.519866
v 0.215335 0.290086 0.519866
v 0.109777 -0.290086 0.551887
v 0.109777 0.290086 0.551887
v -0.000001 -0.290086 0.562699
v -0.000001 0.290086 0.562699
v -0.109778 -0.290086 0.551887
v -0.109778 0.290086 0.551887
v -0.215337 -0.290086 0.519866
v -0.215337 0.290086 0.519866
v -0.312620 -0.290086 0.467867
v -0.312620 0.290086 0.467867
v -0.397890 -0.290086 0.397888
v -0.397890 0.290086 0.397888
v -0.467868 -0.290086 0.312618
v -0.467868 0.290086 0.312618
v -0.519867 -0.290086 0.215335
v -0.519867 0.290086 0.215335
v -0.551888 -0.290086 0.109776
v -0.551888 0.290086 0.109776
v -0.562700 -0.290086 -0.000001
v -0.562700 0.290086 -0.000001
v -0.551888 -0.290086 -0.109779
v -0.551888 0.290086 -0.109779
v -0.519867 -0.290086 -0.215337
v -0.519867 0.290086 -0.215337
v -0.467868 -0.290086 -0.312620
v -0.467868 0.290086 -0.312620
v -0.397889 -0.290086 -0.397890
v -0.397889 0.290086 -0.397890
v -0.312619 -0.290086 -0.467869
v -0.312619 0.290086 -0.467869
v -0.215336 -0.290086 -0.519868
v -0.215336 0.290086 -0.519868
v -0.109777 -0.290086 -0.551888
v -0.109777 0.290086 -0.551888
v 0.729598 -0.290086 -0.109778
v 0.729598 0.290086 -0.109778
v 0.743891 -0.290086 -0.000001
v 0.743891 0.290086 -0.000001
v 0.729598 -0.290086 0.109776
v 0.729598 0.290086 0.109776
v -0.729599 -0.290086 0.109776
v -0.729599 0.290086 0.109776
v -0.743892 -0.290086 -0.000001
v -0.743892 0.290086 -0.000001
v -0.729598 -0.290086 -0.109779
v -0.729598 0.290086 -0.109779
v -0.000001 -0.290086 -0.757965
v -0.000001 0.290086 -0.757965
v 0.109777 -0.290086 -0.743401
v 0.109777 0.290086 -0.743401
v 0.109777 -0.290086 0.743399
v 0.109777 0.290086 0.743399
v -0.000001 -0.290086 0.757963
v -0.000001 0.290086 0.757963
v -0.109778 -0.290086 0.743399
v -0.109778 0.290086 0.743399
v -0.109777 -0.290086 -0.743401
v -0.109777 0.290086 -0.743401
vt 0.703178 0.014612
vt 0.750000 0.010000
vt 0.750000 0.010000
vt 0.703178 0.014612
vt 0.968750 0.500000
vt 0.968750 1.000000
vt 0.937500 1.000000
vt 0.937500 0.500000
vt 0.906250 1.000000
vt 0.906250 0.500000
vt 0.875000 1.000000
vt 0.875000 0.500000
vt 0.843750 1.000000
vt 0.843750 0.500000
vt 0.812500 1.000000
vt 0.812500 0.500000
vt 0.781250 1.000000
vt 0.781250 0.500000
vt 0.514612 0.296822
vt 0.510000 0.250000
vt 0.510000 0.250000
vt 0.514612 0.296822
vt 0.985389 0.203178
vt 0.990000 0.250000
vt 0.990000 0.250000
vt 0.985389 0.203178
vt 0.718750 0.500000
vt 0.718750 1.000000
vt 0.687500 1.000000
vt 0.687500 0.500000
vt 0.656250 1.000000
vt 0.656250 0.500000
vt 0.625000 1.000000
vt 0.625000 0.500000
vt 0.593750 1.000000
vt 0.593750 0.500000
vt 0.562500 1.000000
vt 0.562500 0.500000
vt 0.531250 1.000000
vt 0.531250 0.500000
vt 0.031250 0.500000
vt 0.031250 1.000000
vt 0.031250 1.000000
vt 0.031250 0.500000
vt 0.250000 0.490000
vt 0.296822 0.485388
vt 0.296822 0.485388
vt 0.250000 0.490000
vt 0.468750 0.500000
vt 0.468750 1.000000
vt 0.437500 1.000000
vt 0.437500 0.500000
vt 0.406250 1.000000
vt 0.406250 0.500000
vt 0.375000 1.000000
vt 0.375000 0.500000
vt 0.343750 1.000000
vt 0.343750 0.500000
vt 0.312500 1.000000
vt 0.312500 0.500000
vt 0.281250 1.000000
vt 0.281250 0.500000
vt 0.281250 1.000000
vt 0.281250 0.500000
vt 0.781250 1.000000
vt 0.781250 0.500000
vt 0.218750 0.500000
vt 0.218750 1.000000
vt 0.187500 1.000000
vt 0.187500 0.500000
vt 0.156250 1.000000
vt 0.156250 0.500000
vt 0.125000 1.000000
vt 0.125000 0.500000
vt 0.093750 1.000000
vt 0.093750 0.500000
vt 0.062500 1.000000
vt 0.062500 0.500000
vt 0.203179 0.485389
vt 0.158156 0.471731
vt 0.116663 0.449553
vt 0.080295 0.419706
vt 0.050447 0.383337
vt 0.028269 0.341844
vt 0.014612 0.296822
vt 0.010000 0.250000
vt 0.014611 0.203179
vt 0.028269 0.158156
vt 0.050447 0.116663
vt 0.080294 0.080294
vt 0.116663 0.050447
vt 0.158156 0.028269
vt 0.203178 0.014612
vt 0.250000 0.010000
vt 0.296822 0.014612
vt 0.341844 0.028269
vt 0.383337 0.050447
vt 0.419706 0.080294
vt 0.449553 0.116663
vt 0.471731 0.158156
vt 0.485388 0.203178
vt 0.490000 0.250000
vt 0.485388 0.296822
vt 0.471731 0.341844
vt 0.449553 0.383337
vt 0.419706 0.419706
vt 0.383337 0.449553
vt 0.341844 0.471731
vt 0.531250 1.000000
vt 0.531250 0.500000
vt 0.750000 0.490000
vt 0.796822 0.485388
vt 0.841844 0.471731
vt 0.883337 0.449553
vt 0.919706 0.419706
vt 0.949553 0.383337
vt 0.971731 0.341844
vt 0.985388 0.296822
vt 0.971731 0.158156
vt 0.949553 0.116663
vt 0.919706 0.080294
vt 0.883337 0.050447
vt 0.841844 0.028269
vt 0.796822 0.014612
vt 0.658156 0.028269
vt 0.616663 0.050447
vt 0.580294 0.080294
vt 0.550447 0.116663
vt 0.528269 0.158156
vt 0.514611 0.203179
vt 0.528269 0.341844
vt 0.550447 0.383337
vt 0.580295 0.419706
vt 0.616663 0.449553
vt 0.658156 0.471731
vt 0.703179 0.485389
vt 0.750000 1.000000
vt 0.750000 0.500000
vt 0.718750 1.000000
vt 0.718750 0.500000
vt 0.250000 1.000000
vt 0.250000 0.500000
vt 0.218750 1.000000
vt 0.218750 0.500000
vt 0.985388 0.296822
vt 0.514611 0.203179
vt 0.485388 0.203178
vt 0.490000 0.250000
vt 0.014612 0.296822
vt 0.010000 0.250000
vt 0.485388 0.296822
vt 0.014611 0.203179
vt 1.000000 0.500000
vt 1.000000 1.000000
vt 0.968750 1.000000
vt 0.968750 0.500000
vt 0.500000 1.000000
vt 0.500000 0.500000
vt 0.468750 1.000000
vt 0.468750 0.500000
vt 0.000000 1.000000
vt 0.000000 0.500000
vt 0.796822 0.014612
vt 0.703179 0.485389
vt 0.750000 0.490000
vt 0.203178 0.014612
vt 0.250000 0.010000
vt 0.296822 0.014612
vt 0.203179 0.485389
vt 0.796822 0.485388
vt 0.000000 0.000000
vt 0.000000 0.000000
vt 0.000000 0.000000
vt 0.000000 0.000000
vt 0.000000 0.000000
vt 0.000000 0.000000
vt 0.000000 0.000000
vt 0.000000 0.000000
vt 0.000000 0.000000
vt 0.000000 0.000000
vt 0.000000 0.000000
vt 0.000000 0.000000
vt 0.000000 0.000000
vt 0.000000 0.000000
vt 0.000000 0.000000
vt 0.000000 0.000000
vt 0.000000 0.000000
vt 0.000000 0.000000
vt 0.000000 0.000000
vt 0.000000 0.000000
vt 0.000000 0.000000
vt 0.000000 0.000000
vt 0.000000 0.000000
vt 0.000000 0.000000
vt 0.000000 0.000000
vt 0.000000 0.000000
vt 0.000000 0.000000
vt 0.000000 0.000000
vt 0.000000 0.000000
vt 0.000000 0.000000
vt 0.000000 0.000000
vt 0.000000 0.000000
vt 0.000000 0.000000
vt 0.000000 0.000000
vt 0.000000 0.000000
vt 0.000000 0.000000
vt 0.000000 0.000000
vt 0.000000 0.000000
vt 0.000000 0.000000
vt 0.000000 0.000000
vt 0.000000 0.000000
vt 0.000000 0.000000
vt 0.000000 0.000000
vt 0.000000 0.000000
vt 0.000000 0.000000
vt 0.000000 0.000000
vt 0.000000 0.000000
vt 0.000000 0.000000
vt 0.000000 0.000000
vt 0.000000 0.000000
vt 0.000000 0.000000
vt 0.000000 0.000000
vt 0.000000 0.000000
vt 0.000000 0.000000
vt 0.000000 0.000000
vt 0.000000 0.000000
vt 0.000000 0.000000
vt 0.000000 0.000000
vt 0.000000 0.000000
vt 0.000000 0.000000
vt 0.000000 0.000000
vt 0.000000 0.000000
vt 0.000000 0.000000
vt 0.000000 0.000000
vt 0.000000 0.000000
vt 0.000000 0.000000
vt 0.000000 0.000000
vt 0.000000 0.000000
vt 0.000000 0.000000
vt 0.000000 0.000000
vt 0.000000 0.000000
vt 0.000000 0.000000
vt 0.000000 0.000000
vt 0.000000 0.000000
vt 0.000000 0.000000
vt 0.000000 0.000000
vt 0.000000 0.000000
vt 0.000000 0.000000
vt 0.000000 0.000000
vt 0.000000 0.000000
vt 0.000000 0.000000
vt 0.000000 0.000000
vt 0.000000 0.000000
vt 0.000000 0.000000
vt 0.000000 0.000000
vt 0.000000 0.000000
vt 0.000000 0.000000
vt 0.000000 0.000000
vt 0.000000 0.000000
vt 0.000000 0.000000
vt 0.000000 0.000000
vt 0.000000 0.000000
vt 0.000000 0.000000
vt 0.000000 0.000000
vt 0.000000 0.000000
vt 0.000000 0.000000
vt 0.000000 0.000000
vt 0.000000 0.000000
vt 0.000000 0.000000
vt 0.000000 0.000000
vt 0.000000 0.000000
vt 0.000000 0.000000
vt 0.000000 0.000000
vt 0.000000 0.000000
vt 0.000000 0.000000
vt 0.000000 0.000000
vt 0.000000 0.000000
vt 0.000000 0.000000
vt 0.000000 0.000000
vt 0.000000 0.000000
vt 0.000000 0.000000
vt 0.000000 0.000000
vt 0.000000 0.000000
vt 0.000000 0.000000
vt 0.000000 0.000000
vt 0.000000 0.000000
vt 0.000000 0.000000
vt 0.000000 0.000000
vt 0.000000 0.000000
vt 0.000000 0.000000
vt 0.000000 0.000000
vt 0.000000 0.000000
vt 0.000000 0.000000
vt 0.000000 0.000000
vt 0.000000 0.000000
vt 0.000000 0.000000
vt 0.000000 0.000000
vt 0.000000 0.000000
vn 0.0000 -1.0000 0.0000
vn 0.2903 0.0000 -0.9569
vn 0.4714 0.0000 -0.8819
vn 0.6344 -0.0000 -0.7730
vn 0.7730 -0.0000 -0.6344
vn 0.8819 -0.0000 -0.4714
vn 0.9569 0.0000 -0.2903
vn 0.9569 0.0000 0.2903
vn 0.8819 0.0000 0.4714
vn 0.7730 0.0000 0.6344
vn 0.6344 0.0000 0.7730
vn 0.4714 -0.0000 0.8819
vn 0.2903 -0.0000 0.9569
vn -1.0000 0.0000 0.0000
vn 0.0000 1.0000 0.0000
vn -0.2903 -0.0000 0.9569
vn -0.4714 0.0000 0.8819
vn -0.6344 0.0000 0.7730
vn -0.7730 0.0000 0.6344
vn -0.8819 -0.0000 0.4714
vn -0.9569 0.0000 0.2903
vn 0.0000 0.0000 1.0000
vn 0.0000 -0.0000 -1.0000
vn -0.9569 0.0000 -0.2903
vn -0.8819 -0.0000 -0.4714
vn -0.7730 0.0000 -0.6344
vn -0.6344 -0.0000 -0.7730
vn -0.4714 0.0000 -0.8819
vn -0.2903 0.0000 -0.9569
vn 1.0000 -0.0000 0.0000
vn 0.9916 -0.0000 -0.1291
vn 0.9916 0.0000 0.1291
vn -0.9916 0.0000 0.1291
vn -0.9916 -0.0000 -0.1291
vn 0.1315 -0.0000 -0.9913
vn 0.1315 -0.0000 0.9913
vn -0.1315 -0.0000 0.9913
vn -0.1315 -0.0000 -0.9913
vn 0.0980 0.0000 -0.9952
vn -0.0980 -0.0000 0.9952
vn -0.9952 0.0000 0.0980
vn -0.9952 0.0000 -0.0980
vn -0.0980 -0.0000 -0.9952
vn 0.9952 -0.0000 -0.0980
vn 0.9952 -0.0000 0.0980
vn 0.0980 -0.0000 0.9952
vn -0.0025 0.9999 0.0128
vn 0.0000 0.9999 0.0130
vn -0.0121 -0.9999 0.0050
vn -0.0128 -0.9999 0.0025
vn 0.0128 0.9999 -0.0026
vn 0.0121 0.9999 -0.0050
vn 0.0128 -0.9999 0.0025
vn 0.0121 -0.9999 0.0050
vn -0.0073 0.9999 0.0108
vn -0.0050 0.9999 0.0120
vn -0.0130 -0.9999 -0.0000
vn -0.0128 -0.9999 -0.0025
vn 0.0130 0.9999 0.0000
vn 0.0108 -0.9999 0.0072
vn -0.0109 0.9999 0.0072
vn -0.0092 0.9999 0.0092
vn -0.0121 -0.9999 -0.0050
vn -0.0108 -0.9999 -0.0072
vn 0.0128 0.9999 0.0025
vn 0.0092 -0.9999 0.0092
vn -0.0128 0.9999 0.0026
vn -0.0121 0.9999 0.0050
vn -0.0092 -0.9999 -0.0092
vn -0.0073 -0.9999 -0.0109
vn 0.0121 0.9999 0.0050
vn 0.0072 -0.9999 0.0108
vn -0.0128 0.9999 -0.0026
vn -0.0130 0.9999 0.0000
vn -0.0050 -0.9999 -0.0121
vn -0.0025 -0.9999 -0.0128
vn 0.0108 0.9999 0.0073
vn 0.0050 -0.9999 0.0121
vn -0.0109 0.9999 -0.0072
vn -0.0120 0.9999 -0.0050
vn -0.0000 -0.9999 -0.0130
vn 0.0025 -0.9999 -0.0128
vn -0.0025 -0.9999 0.0128
vn -0.0050 -0.9999 0.0121
vn 0.0092 0.9999 0.0092
vn 0.0025 -0.9999 0.0128
vn -0.0072 -0.9999 0.0108
vn -0.0092 -0.9999 0.0092
vn -0.0072 0.9999 -0.0109
vn -0.0092 0.9999 -0.0092
vn 0.0050 -0.9999 -0.0121
vn 0.0072 -0.9999 -0.0108
vn -0.0108 -0.9999 0.0073
vn 0.0073 0.9999 0.0108
vn -0.0000 -0.9999 0.0131
vn -0.0025 0.9999 -0.0128
vn -0.0050 0.9999 -0.0120
vn 0.0092 -0.9999 -0.0092
vn 0.0050 0.9999 0.0121
vn 0.0108 -0.9999 -0.0073
vn 0.0121 -0.9999 -0.0050
vn 0.0025 0.9999 -0.0128
vn 0.0000 0.9999 -0.0131
vn 0.0025 0.9999 0.0128
vn 0.0072 0.9999 -0.0109
vn 0.0050 0.9999 -0.0121
vn 0.0092 0.9999 -0.0092
vn 0.0109 0.9999 -0.0072
vn 0.0128 -0.9999 -0.0025
vn 0.0130 -0.9999 -0.0000
usemtl Material.003
s off
f 163/1/1 161/2/1 211/3/1 213/4/1
f 131/5/2 132/6/2 134/7/2 133/8/2
f 133/8/3 134/7/3 136/9/3 135/10/3
f 135/10/4 136/9/4 138/11/4 137/12/4
f 137/12/5 138/11/5 140/13/5 139/14/5
f 139/14/6 140/13/6 142/15/6 141/16/6
f 141/16/7 142/15/7 144/17/7 143/18/7
f 179/19/1 177/20/1 201/21/1 203/22/1
f 147/23/1 145/24/1 195/25/1 197/26/1
f 147/27/8 148/28/8 150/29/8 149/30/8
f 149/30/9 150/29/9 152/31/9 151/32/9
f 151/32/10 152/31/10 154/33/10 153/34/10
f 153/34/11 154/33/11 156/35/11 155/36/11
f 155/36/12 156/35/12 158/37/12 157/38/12
f 157/38/13 158/37/13 160/39/13 159/40/13
f 191/41/14 192/42/14 216/43/14 215/44/14
f 130/45/15 132/46/15 208/47/15 206/48/15
f 163/49/16 164/50/16 166/51/16 165/52/16
f 165/52/17 166/51/17 168/53/17 167/54/17
f 167/54/18 168/53/18 170/55/18 169/56/18
f 169/56/19 170/55/19 172/57/19 171/58/19
f 171/58/20 172/57/20 174/59/20 173/60/20
f 173/60/21 174/59/21 176/61/21 175/62/21
f 175/62/22 176/61/22 200/63/22 199/64/22
f 143/18/23 144/17/23 194/65/23 193/66/23
f 179/67/24 180/68/24 182/69/24 181/70/24
f 181/70/25 182/69/25 184/71/25 183/72/25
f 183/72/26 184/71/26 186/73/26 185/74/26
f 185/74/27 186/73/27 188/75/27 187/76/27
f 187/76/28 188/75/28 190/77/28 189/78/28
f 132/46/15 130/45/15 192/79/15 190/80/15 188/81/15 186/82/15 184/83/15 182/84/15 180/85/15 178/86/15 176/87/15 174/88/15 172/89/15 170/90/15 168/91/15 166/92/15 164/93/15 162/94/15 160/95/15 158/96/15 156/97/15 154/98/15 152/99/15 150/100/15 148/101/15 146/102/15 144/103/15 142/104/15 140/105/15 138/106/15 136/107/15 134/108/15
f 189/78/29 190/77/29 192/42/29 191/41/29
f 159/40/30 160/39/30 210/109/30 209/110/30
f 129/111/1 131/112/1 133/113/1 135/114/1 137/115/1 139/116/1 141/117/1 143/118/1 145/24/1 147/23/1 149/119/1 151/120/1 153/121/1 155/122/1 157/123/1 159/124/1 161/2/1 163/1/1 165/125/1 167/126/1 169/127/1 171/128/1 173/129/1 175/130/1 177/20/1 179/19/1 181/131/1 183/132/1 185/133/1 187/134/1 189/135/1 191/136/1
f 193/66/31 194/65/31 196/137/31 195/138/31
f 195/138/32 196/137/32 198/139/32 197/140/32
f 199/64/33 200/63/33 202/141/33 201/142/33
f 201/142/34 202/141/34 204/143/34 203/144/34
f 145/24/1 143/118/1 193/145/1 195/25/1
f 177/20/1 175/130/1 199/146/1 201/21/1
f 146/102/15 148/101/15 198/147/15 196/148/15
f 178/86/15 180/85/15 204/149/15 202/150/15
f 144/103/15 146/102/15 196/148/15 194/151/15
f 176/87/15 178/86/15 202/150/15 200/152/15
f 148/28/22 147/27/22 197/140/22 198/139/22
f 180/68/23 179/67/23 203/144/23 204/143/23
f 205/153/35 206/154/35 208/155/35 207/156/35
f 209/110/36 210/109/36 212/157/36 211/158/36
f 211/158/37 212/157/37 214/159/37 213/160/37
f 215/44/38 216/43/38 206/161/38 205/162/38
f 161/2/1 159/124/1 209/163/1 211/3/1
f 129/111/1 191/136/1 215/164/1 205/165/1
f 162/94/15 164/93/15 214/166/15 212/167/15
f 160/95/15 162/94/15 212/167/15 210/168/15
f 132/6/30 131/5/30 207/156/30 208/155/30
f 192/79/15 130/45/15 206/48/15 216/169/15
f 164/50/14 163/49/14 213/160/14 214/159/14
f 131/112/1 129/111/1 205/165/1 207/170/1
s 1
f 1/171/26 2/172/26 3/173/26 4/174/26
f 5/175/16 6/176/16 7/177/16 8/178/16
f 9/179/11 10/180/11 11/181/11 12/182/11
f 13/183/19 14/184/19 15/185/19 16/186/19
f 4/174/27 3/173/27 17/187/27 18/188/27
f 19/189/39 20/190/39 21/191/39 22/192/39
f 23/193/13 24/194/13 25/195/13 26/196/13
f 27/197/21 28/198/21 29/199/21 30/200/21
f 18/188/28 17/187/28 31/201/28 32/202/28
f 33/203/3 34/204/3 35/205/3 36/206/3
f 37/207/40 38/208/40 6/176/40 5/175/40
f 30/200/41 29/199/41 39/209/41 40/210/41
f 22/192/2 21/191/2 34/204/2 33/203/2
f 32/202/29 31/201/29 41/211/29 42/212/29
f 43/213/5 44/214/5 45/215/5 46/216/5
f 36/206/4 35/205/4 44/214/4 43/213/4
f 8/178/17 7/177/17 47/217/17 48/218/17
f 40/210/42 39/209/42 49/219/42 50/220/42
f 46/216/6 45/215/6 51/221/6 52/222/6
f 42/212/43 41/211/43 20/190/43 19/189/43
f 52/222/7 51/221/7 53/223/7 54/224/7
f 54/224/44 53/223/44 55/225/44 56/226/44
f 48/218/18 47/217/18 14/184/18 13/183/18
f 50/220/24 49/219/24 57/227/24 58/228/24
f 59/229/8 60/230/8 61/231/8 62/232/8
f 16/186/20 15/185/20 28/198/20 27/197/20
f 56/226/45 55/225/45 60/230/45 59/229/45
f 63/233/10 64/234/10 10/180/10 9/179/10
f 58/228/25 57/227/25 2/172/25 1/171/25
f 12/182/12 11/181/12 24/194/12 23/193/12
f 62/232/9 61/231/9 64/234/9 63/233/9
f 26/196/46 25/195/46 38/208/46 37/207/46
f 65/235/10 66/236/10 67/237/10 68/238/10
f 69/239/2 70/240/2 71/241/2 72/242/2
f 73/243/27 74/244/27 75/245/27 76/246/27
f 77/247/5 78/248/5 79/249/5 80/250/5
f 66/236/11 81/251/11 82/252/11 67/237/11
f 83/253/40 84/254/40 85/255/40 86/256/40
f 87/257/29 88/258/29 89/259/29 90/260/29
f 91/261/7 92/262/7 93/263/7 94/264/7
f 81/251/12 95/265/12 96/266/12 82/252/12
f 97/267/17 98/268/17 99/269/17 100/270/17
f 101/271/39 69/239/39 72/242/39 102/272/39
f 92/262/44 103/273/44 104/274/44 93/263/44
f 84/254/16 97/267/16 100/270/16 85/255/16
f 95/265/13 105/275/13 106/276/13 96/266/13
f 107/277/19 108/278/19 109/279/19 110/280/19
f 98/268/18 107/277/18 110/280/18 99/269/18
f 70/240/3 111/281/3 112/282/3 71/241/3
f 103/273/45 113/283/45 114/284/45 104/274/45
f 108/278/20 115/285/20 116/286/20 109/279/20
f 105/275/46 83/253/46 86/256/46 106/276/46
f 115/285/21 117/287/21 118/288/21 116/286/21
f 117/287/41 119/289/41 120/290/41 118/288/41
f 111/281/4 77/247/4 80/250/4 112/282/4
f 113/283/8 121/291/8 122/292/8 114/284/8
f 123/293/24 124/294/24 125/295/24 126/296/24
f 78/248/6 91/261/6 94/264/6 79/249/6
f 119/289/42 123/293/42 126/296/42 120/290/42
f 127/297/26 73/243/26 76/246/26 128/298/26
f 121/291/9 65/235/9 68/238/9 122/292/9
f 74/244/28 87/257/28 90/260/28 75/245/28
f 124/294/25 127/297/25 128/298/25 125/295/25
f 88/258/43 101/271/43 102/272/43 89/259/43
f 21/191/47 20/190/48 86/256/48 85/255/47
f 52/222/49 54/224/50 117/287/50 115/285/49
f 29/199/51 28/198/52 94/264/52 93/263/51
f 50/220/53 58/228/54 121/291/54 113/283/53
f 35/205/55 34/204/56 100/270/56 99/269/55
f 56/226/57 59/229/58 123/293/58 119/289/57
f 39/209/59 29/199/51 93/263/51 104/274/59
f 58/228/54 1/171/60 65/235/60 121/291/54
f 45/215/61 44/214/62 110/280/62 109/279/61
f 62/232/63 63/233/64 127/297/64 124/294/63
f 49/219/65 39/209/59 104/274/59 114/284/65
f 1/171/60 4/174/66 66/236/66 65/235/60
f 53/223/67 51/221/68 116/286/68 118/288/67
f 9/179/69 12/182/70 74/244/70 73/243/69
f 57/227/71 49/219/65 114/284/65 122/292/71
f 4/174/66 18/188/72 81/251/72 66/236/66
f 60/230/73 55/225/74 120/290/74 126/296/73
f 23/193/75 26/196/76 88/258/76 87/257/75
f 2/172/77 57/227/71 122/292/71 68/238/77
f 18/188/72 32/202/78 95/265/78 81/251/72
f 64/234/79 61/231/80 125/295/80 128/298/79
f 37/207/81 5/175/82 69/239/82 101/271/81
f 22/192/83 33/203/84 97/267/84 84/254/83
f 3/173/85 2/172/77 68/238/77 67/237/85
f 32/202/78 42/212/86 105/275/86 95/265/78
f 36/206/87 43/213/88 107/277/88 98/268/87
f 11/181/89 10/180/90 76/246/90 75/245/89
f 8/178/91 48/218/92 111/281/92 70/240/91
f 46/216/93 52/222/49 115/285/49 108/278/93
f 17/187/94 3/173/85 67/237/85 82/252/94
f 42/212/86 19/189/95 83/253/95 105/275/86
f 54/224/50 56/226/57 119/289/57 117/287/50
f 25/195/96 24/194/97 90/260/97 89/259/96
f 48/218/92 13/183/98 77/247/98 111/281/92
f 59/229/58 62/232/63 124/294/63 123/293/58
f 31/201/99 17/187/94 82/252/94 96/266/99
f 16/186/100 27/197/101 91/261/101 78/248/100
f 63/233/64 9/179/69 73/243/69 127/297/64
f 6/176/102 38/208/103 102/272/103 72/242/102
f 34/204/56 21/191/47 85/255/47 100/270/56
f 12/182/70 23/193/75 87/257/75 74/244/70
f 41/211/104 31/201/99 96/266/99 106/276/104
f 44/214/62 35/205/55 99/269/55 110/280/62
f 26/196/76 37/207/81 101/271/81 88/258/76
f 47/217/105 7/177/106 71/241/106 112/282/105
f 51/221/68 45/215/61 109/279/61 116/286/68
f 5/175/82 8/178/91 70/240/91 69/239/82
f 20/190/48 41/211/104 106/276/104 86/256/48
f 55/225/74 53/223/67 118/288/67 120/290/74
f 13/183/98 16/186/100 78/248/100 77/247/98
f 14/184/107 47/217/105 112/282/105 80/250/107
f 61/231/80 60/230/73 126/296/73 125/295/80
f 19/189/95 22/192/83 84/254/83 83/253/95
f 28/198/52 15/185/108 79/249/108 94/264/52
f 10/180/90 64/234/79 128/298/79 76/246/90
f 27/197/101 30/200/109 92/262/109 91/261/101
f 24/194/97 11/181/89 75/245/89 90/260/97
f 33/203/84 36/206/87 98/268/87 97/267/84
f 38/208/103 25/195/96 89/259/96 102/272/103
f 30/200/109 40/210/110 103/273/110 92/262/109
f 7/177/106 6/176/102 72/242/102 71/241/106
f 43/213/88 46/216/93 108/278/93 107/277/88
f 15/185/108 14/184/107 80/250/107 79/249/108
f 40/210/110 50/220/53 113/283/53 103/273/110
